grf
version=1
nRows=31
nColumns=28
inDegrees=yes
endheader
time	ground_force_1_vx	ground_force_1_vy	ground_force_1_vz	ground_force_1_px	ground_force_1_py	ground_force_1_pz	ground_moment_1_mx	ground_moment_1_my	ground_moment_1_mz	ground_force_2_vx	ground_force_2_vy	ground_force_2_vz	ground_force_2_px	ground_force_2_py	ground_force_2_pz	ground_moment_2_mx	ground_moment_2_my	ground_moment_2_mz	ground_force_3_vx	ground_force_3_vy	ground_force_3_vz	ground_force_3_px	ground_force_3_py	ground_force_3_pz	ground_moment_3_mx	ground_moment_3_my	ground_moment_3_mz
1.002500	0.000000	0.000000	0.000000	0.216492	0.000000	0.451881	0.000000	0.000000	0.000000	0.000000	0.000000	0.000000	0.099344	0.000000	0.573421	0.000000	0.000000	0.000000	0.000000	0.000000	0.000000	-0.985097	0.000000	0.401922	0.000000	0.000000	0.000000
1.003333	0.000000	0.000000	0.000000	0.262782	0.000000	0.420961	0.000000	0.000000	0.000000	0.000000	0.000000	0.000000	-0.276589	0.000000	0.248645	0.000000	0.000000	0.000000	0.000000	0.000000	0.000000	-0.936802	0.000000	0.391511	0.000000	0.000000	0.000000
1.004167	0.000000	0.000000	0.000000	0.199452	0.000000	0.322252	0.000000	0.000000	0.000000	0.000000	0.000000	0.000000	-0.668962	0.000000	0.407135	0.000000	0.000000	0.000000	0.000000	0.000000	0.000000	-1.040470	0.000000	0.466547	0.000000	0.000000	0.000000
1.005000	0.000000	0.000000	0.000000	0.421873	0.000000	0.420221	0.000000	0.000000	0.000000	0.000000	0.000000	0.000000	-0.089978	0.000000	0.204243	0.000000	0.000000	0.000000	0.000000	0.000000	0.000000	-1.017263	0.000000	0.464989	0.000000	0.000000	0.000000
1.005833	0.000000	0.000000	0.000000	0.150477	0.000000	0.534835	0.000000	0.000000	0.000000	0.000000	0.000000	0.000000	0.553406	0.000000	2.401477	0.000000	0.000000	0.000000	0.000000	0.000000	0.000000	-1.312280	0.000000	0.574465	0.000000	0.000000	0.000000
1.006667	0.000000	0.000000	0.000000	-0.120381	0.000000	0.259271	0.000000	0.000000	0.000000	0.000000	0.000000	0.000000	-0.199591	0.000000	0.117160	0.000000	0.000000	0.000000	0.000000	0.000000	0.000000	-1.349056	0.000000	0.578480	0.000000	0.000000	0.000000
1.007500	0.000000	0.000000	0.000000	0.575840	0.000000	0.177124	0.000000	0.000000	0.000000	0.000000	0.000000	0.000000	-0.035076	-0.000000	-0.192690	0.000000	0.000000	0.000000	0.000000	0.000000	0.000000	-1.005524	0.000000	0.466906	0.000000	0.000000	0.000000
1.008333	0.000000	0.000000	0.000000	0.110497	0.000000	0.183404	0.000000	0.000000	0.000000	0.000000	0.000000	0.000000	-0.046524	0.000000	0.821686	0.000000	0.000000	0.000000	0.000000	0.000000	0.000000	-0.879693	0.000000	0.335514	0.000000	0.000000	0.000000
1.009167	0.000000	0.000000	0.000000	0.469369	0.000000	0.352221	0.000000	0.000000	0.000000	0.000000	0.000000	0.000000	-0.135792	0.000000	0.191250	0.000000	0.000000	0.000000	0.000000	0.000000	0.000000	-0.880737	0.000000	0.390159	0.000000	0.000000	0.000000
1.010000	0.000000	0.000000	0.000000	0.336570	0.000000	0.381435	0.000000	0.000000	0.000000	0.000000	0.000000	0.000000	-0.786781	-0.000000	-1.521613	0.000000	0.000000	0.000000	0.000000	0.000000	0.000000	-1.397363	0.000000	0.068799	0.000000	0.000000	0.000000
1.010833	0.000000	0.000000	0.000000	0.133107	0.000000	0.317256	0.000000	0.000000	0.000000	0.000000	0.000000	0.000000	-0.223126	0.000000	0.221213	0.000000	0.000000	0.000000	0.000000	0.000000	0.000000	-0.983089	0.000000	0.429248	0.000000	0.000000	0.000000
1.011667	0.000000	0.000000	0.000000	0.261357	0.000000	0.472874	0.000000	0.000000	0.000000	0.000000	0.000000	0.000000	0.268745	0.000000	0.090709	0.000000	0.000000	0.000000	0.000000	0.000000	0.000000	-1.165196	0.000000	0.824363	0.000000	0.000000	0.000000
1.012500	0.000000	0.000000	0.000000	0.764316	0.000000	0.714475	0.000000	0.000000	0.000000	0.000000	0.000000	0.000000	-0.204939	0.000000	0.332245	0.000000	0.000000	0.000000	0.000000	0.000000	0.000000	-1.519515	0.000000	4.088543	0.000000	0.000000	0.000000
1.013333	0.000000	0.000000	0.000000	-0.202952	0.000000	0.465456	0.000000	0.000000	0.000000	0.000000	0.000000	0.000000	0.106487	0.000000	0.299608	0.000000	0.000000	0.000000	0.000000	0.000000	0.000000	-1.173148	0.000000	0.680858	0.000000	0.000000	0.000000
1.014167	0.000000	0.000000	0.000000	0.391356	0.000000	0.258650	0.000000	0.000000	0.000000	0.000000	0.000000	0.000000	-0.312331	0.000000	0.238754	0.000000	0.000000	0.000000	0.000000	0.000000	0.000000	1.916822	-0.000000	-8.957931	0.000000	0.000000	0.000000
1.015000	0.000000	0.000000	0.000000	0.183997	0.000000	0.247461	0.000000	0.000000	0.000000	0.000000	0.000000	0.000000	-0.307522	0.000000	0.125257	0.000000	0.000000	0.000000	0.000000	0.000000	0.000000	-1.250609	0.000000	0.481015	0.000000	0.000000	0.000000
1.015833	0.000000	0.000000	0.000000	0.261541	0.000000	0.449547	0.000000	0.000000	0.000000	0.000000	0.000000	0.000000	-0.555484	0.000000	0.157410	0.000000	0.000000	0.000000	0.000000	0.000000	0.000000	-0.968701	0.000000	0.465305	0.000000	0.000000	0.000000
1.016667	0.000000	0.000000	0.000000	-0.085511	0.000000	0.082736	0.000000	0.000000	0.000000	0.000000	0.000000	0.000000	-0.182803	0.000000	0.207957	0.000000	0.000000	0.000000	0.000000	0.000000	0.000000	-1.094028	0.000000	0.555268	0.000000	0.000000	0.000000
1.017500	0.000000	0.000000	0.000000	0.244794	0.000000	0.353060	0.000000	0.000000	0.000000	0.000000	0.000000	0.000000	-3.175042	-0.000000	-1.878195	0.000000	0.000000	0.000000	0.000000	0.000000	0.000000	-0.991524	0.000000	0.412109	0.000000	0.000000	0.000000
1.018333	0.000000	0.000000	0.000000	-0.360334	0.000000	0.060995	0.000000	0.000000	0.000000	0.000000	0.000000	0.000000	-0.217623	0.000000	0.603235	0.000000	0.000000	0.000000	0.000000	0.000000	0.000000	-1.113865	0.000000	0.704748	0.000000	0.000000	0.000000
1.019167	0.000000	0.000000	0.000000	0.316758	0.000000	0.324671	0.000000	0.000000	0.000000	0.000000	0.000000	0.000000	-0.354001	0.000000	0.293936	0.000000	0.000000	0.000000	0.000000	0.000000	0.000000	-0.892621	0.000000	0.374285	0.000000	0.000000	0.000000
1.020000	0.000000	0.000000	0.000000	0.018979	0.000000	0.520860	0.000000	0.000000	0.000000	0.000000	0.000000	0.000000	-0.230044	0.000000	0.253521	0.000000	0.000000	0.000000	0.000000	0.000000	0.000000	-1.006465	0.000000	0.400287	0.000000	0.000000	0.000000
1.020833	0.000000	0.000000	0.000000	0.358205	0.000000	0.483460	0.000000	0.000000	0.000000	0.000000	0.000000	0.000000	0.040483	0.000000	0.306576	0.000000	0.000000	0.000000	0.000000	0.000000	0.000000	-1.085485	0.000000	0.512142	0.000000	0.000000	0.000000
1.021667	0.000000	0.000000	0.000000	1.538071	0.000000	4.715386	0.000000	0.000000	0.000000	0.000000	0.000000	0.000000	0.779995	0.000000	0.753211	0.000000	0.000000	0.000000	0.000000	0.000000	0.000000	-1.005272	0.000000	0.460703	0.000000	0.000000	0.000000
1.022500	0.000000	0.000000	0.000000	0.261752	0.000000	0.399089	0.000000	0.000000	0.000000	0.000000	0.000000	0.000000	1.711212	-0.000000	-0.388952	0.000000	0.000000	0.000000	0.000000	0.000000	0.000000	-0.936311	0.000000	0.402319	0.000000	0.000000	0.000000
1.023333	0.000000	0.000000	0.000000	0.270695	0.000000	0.419831	0.000000	0.000000	0.000000	0.000000	0.000000	0.000000	-0.370598	0.000000	0.219542	0.000000	0.000000	0.000000	0.000000	0.000000	0.000000	-0.929179	0.000000	0.413514	0.000000	0.000000	0.000000
1.024167	0.000000	0.000000	0.000000	0.292990	0.000000	0.249082	0.000000	0.000000	0.000000	0.000000	0.000000	0.000000	-0.075423	0.000000	0.271158	0.000000	0.000000	0.000000	0.000000	0.000000	0.000000	-1.560850	0.000000	0.659417	0.000000	0.000000	0.000000
1.025000	0.000000	0.000000	0.000000	0.190390	0.000000	0.211190	0.000000	0.000000	0.000000	0.000000	0.000000	0.000000	-0.281616	0.000000	0.195155	0.000000	0.000000	0.000000	0.000000	0.000000	0.000000	-1.017870	0.000000	0.502540	0.000000	0.000000	0.000000
1.025833	0.000000	0.000000	0.000000	0.556107	0.000000	0.911265	0.000000	0.000000	0.000000	0.000000	0.000000	0.000000	-0.669427	0.000000	0.103399	0.000000	0.000000	0.000000	0.000000	0.000000	0.000000	0.686468	0.000000	1.003026	0.000000	0.000000	0.000000
1.026667	0.000000	0.000000	0.000000	0.215470	0.000000	0.270802	0.000000	0.000000	0.000000	0.000000	0.000000	0.000000	-0.121493	0.000000	1.305838	0.000000	0.000000	0.000000	0.000000	0.000000	0.000000	-1.106972	0.000000	0.537992	0.000000	0.000000	0.000000
1.027500	0.000000	0.000000	0.000000	-0.271786	0.000000	0.496860	0.000000	0.000000	0.000000	0.000000	0.000000	0.000000	0.088270	0.000000	0.469423	0.000000	0.000000	0.000000	0.000000	0.000000	0.000000	0.207808	-0.000000	-1.314791	0.000000	0.000000	0.000000
